<svg width="20" height="20" viewBox="0 0 20 20" fill="none" xmlns="http://www.w3.org/2000/svg">
  <circle cx="10" cy="10" r="10" fill="#FFFFFF" />
  <path
    d="M10 4C8.37175 4 8.167 4.0075 7.52725 4.036C6.8875 4.066 6.45175 4.1665 6.07 4.315C5.66938 4.46524 5.30661 4.70155 5.00725 5.00725C4.70155 5.30661 4.46524 5.66938 4.315 6.07C4.1665 6.451 4.06525 6.8875 4.036 7.525C4.0075 8.16625 4 8.37025 4 10.0008C4 11.6298 4.0075 11.8338 4.036 12.4735C4.066 13.1125 4.1665 13.5482 4.315 13.93C4.46875 14.3245 4.6735 14.659 5.00725 14.9927C5.34025 15.3265 5.67475 15.532 6.06925 15.685C6.45175 15.8335 6.88675 15.9347 7.52575 15.964C8.16625 15.9925 8.37025 16 10 16C11.6298 16 11.833 15.9925 12.4735 15.964C13.1118 15.934 13.549 15.8335 13.9308 15.685C14.3311 15.5347 14.6936 15.2984 14.9927 14.9927C15.3265 14.659 15.5312 14.3245 15.685 13.93C15.8327 13.5482 15.934 13.1125 15.964 12.4735C15.9925 11.8338 16 11.6298 16 10C16 8.37025 15.9925 8.16625 15.964 7.52575C15.934 6.8875 15.8327 6.451 15.685 6.07C15.5348 5.66938 15.2985 5.30661 14.9927 5.00725C14.6934 4.70155 14.3306 4.46524 13.93 4.315C13.5475 4.1665 13.111 4.06525 12.4727 4.036C11.8322 4.0075 11.629 4 9.9985 4H10ZM9.46225 5.0815H10.0008C11.6028 5.0815 11.7925 5.08675 12.4247 5.116C13.0097 5.14225 13.3277 5.2405 13.5392 5.32225C13.819 5.431 14.0192 5.5615 14.2292 5.7715C14.4392 5.9815 14.569 6.181 14.6778 6.4615C14.7603 6.67225 14.8578 6.99025 14.884 7.57525C14.9133 8.2075 14.9193 8.39725 14.9193 9.9985C14.9193 11.5998 14.9133 11.7902 14.884 12.4225C14.8578 13.0075 14.7595 13.3248 14.6778 13.5363C14.5809 13.7964 14.4274 14.0318 14.2285 14.2255C14.0185 14.4355 13.819 14.5653 13.5385 14.674C13.3285 14.7565 13.0105 14.854 12.4247 14.881C11.7925 14.9095 11.6028 14.9163 10.0008 14.9163C8.39875 14.9163 8.20825 14.9095 7.576 14.881C6.991 14.854 6.67375 14.7565 6.46225 14.674C6.20187 14.5774 5.9662 14.4243 5.77225 14.2255C5.57296 14.0317 5.41925 13.796 5.32225 13.5355C5.2405 13.3247 5.14225 13.0068 5.116 12.4218C5.0875 11.7895 5.0815 11.5997 5.0815 9.997C5.0815 8.39425 5.0875 8.206 5.116 7.57375C5.143 6.98875 5.2405 6.67075 5.323 6.45925C5.43175 6.1795 5.56225 5.97925 5.77225 5.76925C5.98225 5.55925 6.18175 5.4295 6.46225 5.32075C6.67375 5.23825 6.991 5.14075 7.576 5.11375C8.1295 5.08825 8.344 5.08075 9.46225 5.08V5.0815ZM13.2032 6.0775C13.1087 6.0775 13.0151 6.09612 12.9277 6.13231C12.8404 6.16849 12.761 6.22152 12.6941 6.28838C12.6273 6.35524 12.5742 6.43461 12.5381 6.52197C12.5019 6.60932 12.4832 6.70295 12.4832 6.7975C12.4832 6.89205 12.5019 6.98568 12.5381 7.07303C12.5742 7.16039 12.6273 7.23976 12.6941 7.30662C12.761 7.37348 12.8404 7.42651 12.9277 7.46269C13.0151 7.49888 13.1087 7.5175 13.2032 7.5175C13.3942 7.5175 13.5773 7.44164 13.7124 7.30662C13.8474 7.17159 13.9232 6.98846 13.9232 6.7975C13.9232 6.60654 13.8474 6.42341 13.7124 6.28838C13.5773 6.15336 13.3942 6.0775 13.2032 6.0775ZM10.0008 6.919C9.59205 6.91262 9.18617 6.98761 8.80673 7.13961C8.4273 7.2916 8.08189 7.51755 7.79061 7.80432C7.49934 8.09108 7.26802 8.43293 7.11013 8.80994C6.95224 9.18696 6.87093 9.59163 6.87093 10.0004C6.87093 10.4091 6.95224 10.8138 7.11013 11.1908C7.26802 11.5678 7.49934 11.9097 7.79061 12.1964C8.08189 12.4832 8.4273 12.7092 8.80673 12.8611C9.18617 13.0131 9.59205 13.0881 10.0008 13.0818C10.8097 13.0691 11.5812 12.7389 12.1487 12.1624C12.7163 11.5859 13.0344 10.8094 13.0344 10.0004C13.0344 9.19137 12.7163 8.41481 12.1487 7.83831C11.5812 7.26182 10.8097 6.93162 10.0008 6.919ZM10.0008 7.99975C10.2634 7.99975 10.5235 8.05149 10.7662 8.15201C11.0089 8.25253 11.2294 8.39987 11.4151 8.58561C11.6009 8.77135 11.7482 8.99186 11.8487 9.23454C11.9493 9.47722 12.001 9.73732 12.001 10C12.001 10.2627 11.9493 10.5228 11.8487 10.7655C11.7482 11.0081 11.6009 11.2286 11.4151 11.4144C11.2294 11.6001 11.0089 11.7475 10.7662 11.848C10.5235 11.9485 10.2634 12.0002 10.0008 12.0002C9.47025 12.0002 8.96148 11.7895 8.58636 11.4144C8.21124 11.0393 8.0005 10.5305 8.0005 10C8.0005 9.4695 8.21124 8.96073 8.58636 8.58561C8.96148 8.21049 9.47025 7.99975 10.0008 7.99975Z"
    fill="#0B0F17" />
</svg>
