<svg width="96" height="96" viewBox="0 0 96 96" fill="none" xmlns="http://www.w3.org/2000/svg">
    <path
        d="M48 96.0274C74.5097 96.0274 96 74.5371 96 48.0274C96 21.5177 74.5097 0.0274048 48 0.0274048C21.4903 0.0274048 0 21.5177 0 48.0274C0 74.5371 21.4903 96.0274 48 96.0274Z"
        fill="#D4AF37" />
    <path
        d="M65.66 78.3074L33.74 35.4274C33.26 34.7874 32.78 34.1741 32.3 33.5874C31.8733 32.9474 31.42 32.3074 30.94 31.6674H30.86L31.1 65.9074C31.1 67.2407 31.1 68.5741 31.1 69.9074C31.1 71.2407 31.0467 72.5474 30.94 73.8274C31.9 73.7741 32.86 73.7207 33.82 73.6674C34.78 73.6141 35.74 73.5607 36.7 73.5074V77.0274H22.06V74.3874C23.7133 74.3874 24.8867 74.0407 25.58 73.3474C26.3267 72.6007 26.8067 71.7474 27.02 70.7874C27.2333 69.7741 27.34 68.8674 27.34 68.0674L27.42 29.5874C27.42 28.6807 27.42 27.7741 27.42 26.8674C27.42 25.9607 27.42 25.0807 27.42 24.2274C26.5667 24.2807 25.6867 24.3341 24.78 24.3874C23.8733 24.4407 22.9667 24.4941 22.06 24.5474V21.0274H31.58L61.58 61.1874C62.2733 62.0941 62.94 63.0007 63.58 63.9074C64.2733 64.8141 64.9667 65.7207 65.66 66.6274H65.74L65.82 29.9874C65.82 28.9207 65.8467 27.9074 65.9 26.9474C65.9533 25.9341 66.0067 25.0274 66.06 24.2274C65.1 24.2807 64.14 24.3341 63.18 24.3874C62.22 24.4407 61.26 24.4941 60.3 24.5474V21.0274H75.02V23.6674C73.0467 23.7207 71.6867 24.1741 70.94 25.0274C70.1933 25.8807 69.7933 27.0274 69.74 28.4674C69.6867 29.9074 69.66 31.5874 69.66 33.5074L69.5 78.3074H65.66Z"
        fill="#0D121A" />
</svg>
