<svg width="17" height="17" viewBox="0 0 17 17" fill="none" xmlns="http://www.w3.org/2000/svg">
    <path d="M2.06685 15.142L2.90819 11.0656L6.14149 14.2922L2.06685 15.142Z" fill="#D4AF37" />
    <path
        d="M15.9995 8C15.9995 11.866 12.8655 15 8.99951 15C5.13352 15 1.99951 11.866 1.99951 8C1.99951 4.13401 5.13352 1 8.99951 1C12.8655 1 15.9995 4.13401 15.9995 8Z"
        fill="#DAA520" />
    <path
        d="M14.601 2.32606C13.8676 1.58555 12.9941 0.998501 12.0314 0.599149C11.0688 0.199797 10.0362 -0.00386082 8.994 5.54251e-05C4.627 5.54251e-05 1.068 3.55806 1.064 7.92606C1.064 9.32506 1.43 10.6861 2.121 11.8911L1 16.0001L5.204 14.8981C6.36649 15.5323 7.66975 15.8641 8.994 15.8631H8.998C13.366 15.8631 16.924 12.3051 16.928 7.93306C16.9289 6.89112 16.7237 5.85929 16.3241 4.897C15.9246 3.9347 15.3396 3.06095 14.601 2.32606ZM8.994 14.5211C7.81318 14.5201 6.65422 14.2024 5.638 13.6011L5.398 13.4571L2.904 14.1111L3.57 11.6781L3.414 11.4271C2.75381 10.3774 2.40465 9.16208 2.407 7.92206C2.407 4.29606 5.364 1.33806 8.998 1.33806C9.86374 1.3365 10.7212 1.50633 11.521 1.83775C12.3208 2.16916 13.0471 2.65562 13.658 3.26906C14.2709 3.8802 14.7568 4.6066 15.0877 5.40638C15.4186 6.20617 15.5879 7.06352 15.586 7.92906C15.582 11.5681 12.625 14.5211 8.994 14.5211ZM12.609 9.58706C12.412 9.48806 11.439 9.00906 11.256 8.94106C11.074 8.87606 10.941 8.84206 10.811 9.04006C10.678 9.23706 10.298 9.68605 10.184 9.81505C10.07 9.94805 9.952 9.96306 9.754 9.86506C9.557 9.76506 8.918 9.55706 8.162 8.88006C7.572 8.35506 7.177 7.70506 7.059 7.50806C6.945 7.31006 7.048 7.20406 7.147 7.10506C7.234 7.01706 7.344 6.87306 7.443 6.75906C7.543 6.64506 7.576 6.56106 7.641 6.42906C7.706 6.29506 7.675 6.18106 7.626 6.08206C7.576 5.98306 7.181 5.00606 7.014 4.61206C6.854 4.22306 6.691 4.27706 6.569 4.27206C6.455 4.26506 6.322 4.26506 6.189 4.26506C6.08857 4.26761 5.98976 4.29087 5.89873 4.33337C5.80771 4.37587 5.72643 4.4367 5.66 4.51206C5.478 4.71006 4.969 5.18906 4.969 6.16606C4.969 7.14306 5.679 8.08206 5.779 8.21506C5.877 8.34806 7.173 10.3471 9.162 11.2071C9.632 11.4121 10.002 11.5331 10.291 11.6251C10.766 11.7771 11.195 11.7541 11.537 11.7051C11.917 11.6471 12.708 11.2251 12.875 10.7621C13.039 10.2981 13.039 9.90206 12.989 9.81906C12.94 9.73506 12.807 9.68606 12.609 9.58706Z"
        fill="#FFFFFF" />
</svg>
    